<svg width="13" height="109" viewBox="0 0 13 109" fill="none" xmlns="http://www.w3.org/2000/svg">
<path d="M11.426 6.96849C11.426 9.88953 9.092 12.2576 6.213 12.2576C3.334 12.2576 1 9.88953 1 6.96849C1 4.04746 3.334 1.67938 6.213 1.67938C9.092 1.67938 11.426 4.04746 11.426 6.96849Z" stroke="#20B486" stroke-opacity="0.2" stroke-width="2" stroke-miterlimit="10"/>
<path d="M11.426 26.0694C11.426 28.9904 9.092 31.3585 6.213 31.3585C3.334 31.3585 1 28.9904 1 26.0694C1 23.1483 3.334 20.7803 6.213 20.7803C9.092 20.7803 11.426 23.1483 11.426 26.0694Z" stroke="#20B486" stroke-opacity="0.2" stroke-width="2" stroke-miterlimit="10"/>
<path d="M11.426 45.1702C11.426 48.0913 9.092 50.4593 6.213 50.4593C3.334 50.4593 1 48.0913 1 45.1702C1 42.2492 3.334 39.8811 6.213 39.8811C9.092 39.8811 11.426 42.2492 11.426 45.1702Z" stroke="#20B486" stroke-opacity="0.2" stroke-width="2" stroke-miterlimit="10"/>
<path d="M11.426 64.2711C11.426 67.1921 9.092 69.5602 6.213 69.5602C3.334 69.5602 1 67.1921 1 64.2711C1 61.3501 3.334 58.982 6.213 58.982C9.092 58.982 11.426 61.3501 11.426 64.2711Z" stroke="#20B486" stroke-opacity="0.2" stroke-width="2" stroke-miterlimit="10"/>
<path d="M6.21398 88.6611C9.09304 88.6611 11.427 86.293 11.427 83.372C11.427 80.4509 9.09304 78.0828 6.21398 78.0828C3.33492 78.0828 1.00098 80.4509 1.00098 83.372C1.00098 86.293 3.33492 88.6611 6.21398 88.6611Z" stroke="#20B486" stroke-opacity="0.2" stroke-width="2" stroke-miterlimit="10"/>
<path d="M11.426 102.474C11.426 105.395 9.092 107.763 6.213 107.763C3.334 107.763 1 105.395 1 102.474C1 99.5528 3.334 97.1847 6.213 97.1847C9.092 97.1847 11.426 99.5528 11.426 102.474Z" stroke="#20B486" stroke-opacity="0.2" stroke-width="2" stroke-miterlimit="10"/>
</svg>
