<svg width="36" height="36" viewBox="0 0 36 36" fill="none" xmlns="http://www.w3.org/2000/svg">
<path d="M18 4.5C18 11.25 11.25 18 4.5 18C11.25 18 18 24.75 18 31.5C18 24.75 24.75 18 31.5 18C24.75 18 18 11.25 18 4.5Z" stroke="#20B486" stroke-opacity="0.5" stroke-width="1.5" stroke-linecap="round" stroke-linejoin="round"/>
<path d="M6.75 25.5C6.75 26.7495 4.2495 29.25 3 29.25C4.2495 29.25 6.75 31.7505 6.75 33C6.75 31.7505 9.2505 29.25 10.5 29.25C9.2505 29.25 6.75 26.7495 6.75 25.5Z" stroke="#20B486" stroke-opacity="0.5" stroke-width="1.5" stroke-linecap="round" stroke-linejoin="round"/>
<path d="M28.5 3C28.5 4.5 25.5 7.5 24 7.5C25.5 7.5 28.5 10.5 28.5 12C28.5 10.5 31.5 7.5 33 7.5C31.5 7.5 28.5 4.5 28.5 3Z" stroke="#20B486" stroke-opacity="0.5" stroke-width="1.5" stroke-linecap="round" stroke-linejoin="round"/>
</svg>
