<svg width="18" height="18" viewBox="0 0 18 18" fill="none" xmlns="http://www.w3.org/2000/svg">
<path d="M5.9917 2.62461C5.89356 2.72507 5.83862 2.85993 5.83862 3.00036C5.83862 3.14079 5.89356 3.27566 5.9917 3.37611L11.4738 8.99999L5.9917 14.6227C5.89356 14.7232 5.83862 14.8581 5.83862 14.9985C5.83862 15.1389 5.89356 15.2738 5.9917 15.3742C6.03939 15.4232 6.09642 15.4622 6.15941 15.4887C6.2224 15.5153 6.29008 15.529 6.35845 15.529C6.42682 15.529 6.49449 15.5153 6.55749 15.4887C6.62048 15.4622 6.6775 15.4232 6.7252 15.3742L12.5549 9.39261C12.6573 9.28757 12.7146 9.14668 12.7146 8.99999C12.7146 8.8533 12.6573 8.71241 12.5549 8.60736L6.7252 2.62574C6.6775 2.57675 6.62048 2.53781 6.55749 2.51123C6.49449 2.48464 6.42682 2.47095 6.35845 2.47095C6.29008 2.47095 6.2224 2.48464 6.15941 2.51123C6.09642 2.53781 6.03939 2.57675 5.9917 2.62574V2.62461Z" fill="white"/>
</svg>
