<svg width="50" height="50" viewBox="0 0 50 50" fill="none" xmlns="http://www.w3.org/2000/svg">
<path d="M38.1837 46.8751C36.2774 46.8751 33.5997 46.1856 29.5899 43.9454C24.7139 41.211 20.9424 38.6866 16.0928 33.8497C11.417 29.1768 9.14166 26.1514 5.95709 20.3565C2.35943 13.8135 2.97271 10.3839 3.65826 8.91804C4.47466 7.16609 5.67974 6.11823 7.23736 5.0782C8.12208 4.49854 9.05833 4.00165 10.0342 3.59382C10.1319 3.55183 10.2227 3.51179 10.3038 3.47566C10.7872 3.25788 11.5196 2.92878 12.4473 3.28034C13.0665 3.51277 13.6192 3.98835 14.4844 4.84284C16.2588 6.59284 18.6836 10.4903 19.5782 12.4044C20.1788 13.6944 20.5762 14.546 20.5772 15.501C20.5772 16.6192 20.0147 17.4815 19.3321 18.4122C19.2042 18.587 19.0772 18.754 18.9542 18.9161C18.211 19.8927 18.0479 20.1749 18.1553 20.6788C18.3731 21.6915 19.9971 24.7061 22.6661 27.3692C25.335 30.0323 28.2628 31.5538 29.2794 31.7706C29.8047 31.8829 30.0928 31.713 31.1006 30.9434C31.2452 30.8331 31.3936 30.7188 31.5489 30.6046C32.5899 29.8302 33.4122 29.2823 34.504 29.2823H34.5098C35.46 29.2823 36.2735 29.6944 37.6211 30.3741C39.379 31.2608 43.3936 33.6544 45.1544 35.4307C46.0108 36.294 46.4883 36.8448 46.7217 37.463C47.0733 38.3936 46.7422 39.1231 46.5264 39.6114C46.4903 39.6925 46.4503 39.7813 46.4083 39.88C45.9972 40.8541 45.4974 41.7884 44.9151 42.671C43.877 44.2237 42.8252 45.4259 41.0694 46.2432C40.1678 46.6698 39.181 46.8858 38.1837 46.8751Z" fill="white"/>
</svg>
