<svg width="50" height="50" viewBox="0 0 50 50" fill="none" xmlns="http://www.w3.org/2000/svg">
<g clip-path="url(#clip0_113_2126)">
<path d="M44.9028 8.33323C44.7135 8.31373 44.5227 8.31373 44.3334 8.33323H5.44449C5.19524 8.33707 4.94765 8.37445 4.70837 8.44435L24.7778 28.4305L44.9028 8.33323Z" fill="white"/>
<path d="M46.9583 10.2639L26.7361 30.4028C26.2156 30.9202 25.5116 31.2106 24.7778 31.2106C24.0439 31.2106 23.3399 30.9202 22.8194 30.4028L2.77776 10.4167C2.71615 10.6431 2.68348 10.8765 2.68054 11.1111V38.8889C2.68054 39.6256 2.9732 40.3322 3.49413 40.8531C4.01507 41.374 4.72161 41.6667 5.45832 41.6667H44.3472C45.0839 41.6667 45.7905 41.374 46.3114 40.8531C46.8323 40.3322 47.125 39.6256 47.125 38.8889V11.1111C47.1139 10.8218 47.0577 10.5359 46.9583 10.2639ZM7.3611 38.8889H5.43054V36.9028L15.5278 26.8889L17.4861 28.8472L7.3611 38.8889ZM44.3194 38.8889H42.375L32.25 28.8472L34.2083 26.8889L44.3055 36.9028L44.3194 38.8889Z" fill="white"/>
</g>
<defs>
<clipPath id="clip0_113_2126">
<rect width="50" height="50" fill="white"/>
</clipPath>
</defs>
</svg>
