<svg width="22" height="24" viewBox="0 0 22 24" fill="none" xmlns="http://www.w3.org/2000/svg">
<g clip-path="url(#clip0_175_48)">
<path d="M16.499 0.766514L13.6462 0.761719C10.441 0.761719 8.36976 2.98798 8.36976 6.43371V9.04888H5.50132C5.25345 9.04888 5.05273 9.2594 5.05273 9.51907V13.3081C5.05273 13.5678 5.25368 13.7781 5.50132 13.7781H8.36976V23.3392C8.36976 23.5988 8.57048 23.8091 8.81835 23.8091H12.5609C12.8087 23.8091 13.0094 23.5986 13.0094 23.3392V13.7781H16.3633C16.6112 13.7781 16.8119 13.5678 16.8119 13.3081L16.8133 9.51907C16.8133 9.39439 16.7659 9.27498 16.6819 9.18675C16.5979 9.09851 16.4835 9.04888 16.3645 9.04888H13.0094V6.83197C13.0094 5.76643 13.2518 5.22551 14.5767 5.22551L16.4986 5.22479C16.7462 5.22479 16.9469 5.01427 16.9469 4.75484V1.23646C16.9469 0.977272 16.7464 0.766994 16.499 0.766514Z" fill="white"/>
</g>
<defs>
<clipPath id="clip0_175_48">
<rect width="22" height="23.0474" fill="white" transform="translate(0 0.761719)"/>
</clipPath>
</defs>
</svg>
