<svg width="22" height="21" viewBox="0 0 22 21" fill="none" xmlns="http://www.w3.org/2000/svg">
<g clip-path="url(#clip0_175_51)">
<path d="M20.9204 18.7579C20.9676 18.7584 21.0144 18.7489 21.0579 18.7298C21.1014 18.7108 21.1406 18.6826 21.1732 18.6472C21.2058 18.6118 21.231 18.5698 21.2473 18.5238C21.2635 18.4778 21.2705 18.4289 21.2678 18.38C21.2678 18.112 21.1119 17.9839 20.7921 17.9839H20.2753V19.3872H20.4696V18.7755H20.7085L20.714 18.783L21.0846 19.3872H21.2925L20.8937 18.7618L20.9204 18.7579ZM20.6956 18.6174H20.4702V18.1429H20.7559C20.9035 18.1429 21.0717 18.1679 21.0717 18.3684C21.0717 18.5989 20.9015 18.6174 20.6944 18.6174" fill="white"/>
<path d="M15.8502 16.9989H13.0939V12.5214C13.0939 11.4537 13.0756 10.0792 11.6604 10.0792C10.2248 10.0792 10.0051 11.2425 10.0051 12.4437V16.9986H7.24881V7.79104H9.89488V9.04936H9.93192C10.1967 8.5797 10.5794 8.19333 11.0391 7.93141C11.4989 7.6695 12.0185 7.54183 12.5427 7.56201C15.3363 7.56201 15.8514 9.4681 15.8514 11.9478L15.8502 16.9989ZM4.13878 6.53243C3.82242 6.53249 3.51314 6.43524 3.25007 6.25297C2.987 6.07071 2.78195 5.81161 2.66084 5.50846C2.53972 5.2053 2.50798 4.8717 2.56964 4.54984C2.6313 4.22798 2.7836 3.93231 3.00726 3.70023C3.23091 3.46814 3.5159 3.31007 3.82616 3.24599C4.13643 3.18191 4.45804 3.21471 4.75033 3.34024C5.04263 3.46576 5.29248 3.67838 5.46828 3.9512C5.64409 4.22401 5.73796 4.54479 5.73802 4.87294C5.73805 5.09083 5.69671 5.30659 5.61636 5.50791C5.53601 5.70923 5.41824 5.89216 5.26973 6.04625C5.12123 6.20035 4.94491 6.3226 4.75086 6.40602C4.55681 6.48943 4.34883 6.53239 4.13878 6.53243V6.53243ZM5.51693 16.9989H2.75775V7.79104H5.51693V16.9989ZM17.2244 0.558932H1.3727C1.01292 0.55472 0.666217 0.698849 0.408822 0.959647C0.151426 1.22044 0.00439102 1.57657 0 1.94978V18.461C0.00424074 18.8343 0.15119 19.1907 0.408576 19.4518C0.665963 19.7129 1.01274 19.8573 1.3727 19.8533H17.2244C17.5851 19.858 17.9328 19.714 18.1912 19.4529C18.4496 19.1919 18.5975 18.8351 18.6025 18.461V1.94859C18.5974 1.57464 18.4494 1.21811 18.1909 0.957317C17.9325 0.696525 17.5849 0.552808 17.2244 0.55774" fill="white"/>
<path d="M20.7195 17.3584C20.3842 17.3617 20.0638 17.5027 19.8283 17.7505C19.5929 17.9982 19.4617 18.3326 19.4633 18.6805C19.4649 19.0283 19.5992 19.3614 19.837 19.6068C20.0747 19.8522 20.3964 19.9899 20.7317 19.9899C21.0671 19.9899 21.3888 19.8522 21.6265 19.6068C21.8642 19.3614 21.9986 19.0283 22.0002 18.6805C22.0018 18.3326 21.8706 17.9982 21.6352 17.7505C21.3997 17.5027 21.0793 17.3617 20.7439 17.3584H20.7195ZM20.7195 19.8393C20.4996 19.8431 20.2835 19.7791 20.0986 19.6555C19.9136 19.5319 19.7682 19.3542 19.6806 19.1449C19.5931 18.9355 19.5673 18.704 19.6067 18.4794C19.646 18.2549 19.7486 18.0475 19.9016 17.8835C20.0545 17.7195 20.2509 17.6062 20.4659 17.558C20.6809 17.5097 20.9049 17.5287 21.1095 17.6125C21.3141 17.6963 21.4902 17.8412 21.6155 18.0288C21.7407 18.2164 21.8095 18.4383 21.8132 18.6664C21.8132 18.673 21.8132 18.6793 21.8132 18.6858C21.8193 18.9851 21.7106 19.2747 21.511 19.4909C21.3113 19.7071 21.0371 19.8322 20.7485 19.8387H20.7198" fill="white"/>
</g>
<defs>
<clipPath id="clip0_175_51">
<rect width="22" height="19.4558" fill="white" transform="translate(0 0.557617)"/>
</clipPath>
</defs>
</svg>
