<svg width="22" height="19" viewBox="0 0 22 19" fill="none" xmlns="http://www.w3.org/2000/svg">
<g clip-path="url(#clip0_175_55)">
<path d="M6.94632 18.4282C15.1934 18.4282 19.7034 11.3934 19.7034 5.29301C19.7034 5.09319 19.6994 4.89428 19.6907 4.69627C20.5662 4.04463 21.3271 3.23144 21.9272 2.30572C21.1239 2.67339 20.2594 2.9209 19.3524 3.03251C20.2781 2.46097 20.9888 1.55687 21.3241 0.479084C20.4578 1.00787 19.4984 1.39219 18.477 1.59969C17.6588 0.702359 16.494 0.141113 15.2042 0.141113C12.7282 0.141113 10.7203 2.20858 10.7203 4.75702C10.7203 5.11929 10.7596 5.47166 10.8366 5.80966C7.11013 5.6166 3.8058 3.77958 1.59436 0.986264C1.2093 1.6685 0.987272 2.461 0.987272 3.3066C0.987272 4.90826 1.77883 6.32221 2.98253 7.14939C2.24692 7.12599 1.5559 6.91807 0.951926 6.572C0.951266 6.59137 0.951263 6.61025 0.951263 6.63095C0.951263 8.86672 2.49677 10.7334 4.54834 11.1564C4.17158 11.2622 3.77518 11.3189 3.36606 11.3189C3.07759 11.3189 2.79655 11.2896 2.52338 11.2356C3.09419 13.0699 4.74942 14.4047 6.71182 14.442C5.17724 15.6805 3.24411 16.4181 1.14311 16.4181C0.781645 16.4181 0.42456 16.3969 0.0736084 16.3542C2.05794 17.6638 4.41414 18.4279 6.94656 18.4279" fill="white"/>
</g>
<defs>
<clipPath id="clip0_175_55">
<rect width="22" height="18.4381" fill="white" transform="translate(0 0.0664062)"/>
</clipPath>
</defs>
</svg>
