<svg width="188" height="148" viewBox="0 0 188 148" fill="none" xmlns="http://www.w3.org/2000/svg">
<path d="M150.967 130.563C150.967 132.64 149.282 134.325 147.203 134.325H18.4273C16.3527 134.325 14.6659 132.64 14.6659 130.563V53.309C14.6659 51.2344 16.3527 49.5526 18.4273 49.5526H147.203C149.282 49.5526 150.967 51.2344 150.967 53.309V130.563Z" fill="#284962"/>
<path d="M142.193 55.537H23.4425V128.338H142.193V55.537Z" fill="white"/>
<path d="M142.19 128.338H23.4425L142.19 55.537V128.338Z" fill="#D5ECFC"/>
<path d="M160.733 144.962C158.764 147.57 154.713 147.55 152.641 147.55H12.9866C10.9096 147.55 8.09484 147.948 4.8949 144.962L0.564531 139.79C-0.477778 138.587 -0.513027 137.197 4.32591 137.197H161.304C166.103 137.197 166.103 138.625 165.066 139.79L160.733 144.962Z" fill="#284962"/>
<path d="M158.474 78.2815C156.214 84.2382 134.801 87.2947 112.963 79.004C91.1247 70.7134 77.1341 54.2127 79.3949 48.2559L92.6756 13.2806C103.773 5.29966 119.058 21.0577 132.961 26.3372C147.2 31.7451 168.903 29.8493 171.753 43.3087L158.474 78.2815Z" fill="#285A73"/>
<path d="M123.293 49.0515C122.769 49.0515 122.268 48.835 121.908 48.4548L81.006 5.11089C80.4698 4.5419 80.3363 3.70604 80.6636 3.00109C80.9783 2.32888 81.6531 1.90088 82.3882 1.90088C82.426 1.90088 140.325 5.32993 140.325 5.32993C140.758 5.35511 141.17 5.52882 141.49 5.82087L185.474 45.6905C186.053 46.2166 186.254 47.05 185.97 47.7851C185.688 48.5178 184.98 49.0012 184.195 49.0037L123.293 49.0515Z" fill="#284962"/>
<path d="M186.748 44.278L142.769 4.41093C142.125 3.82936 141.304 3.48192 140.436 3.43157L82.6125 0.00503735C82.537 2.03583e-06 82.4615 0 82.3859 0C80.9156 0 79.5687 0.850967 78.9393 2.19539C78.2796 3.61032 78.549 5.28456 79.6215 6.42002L120.526 49.7615C121.243 50.5243 122.245 50.9573 123.295 50.9573L184.197 50.907C185.771 50.907 187.183 49.9377 187.745 48.4699C188.311 46.9996 187.916 45.3354 186.748 44.278ZM123.293 47.1481L82.3884 3.80418L140.211 7.23071L184.192 47.1003L123.293 47.1481Z" fill="#284962"/>
<path d="M165.975 101.799C164.92 101.799 164.071 100.948 164.071 99.8956V59.3386L131.631 27.6993C130.876 26.9641 130.861 25.7607 131.596 25.0079C132.331 24.2551 133.535 24.24 134.287 24.9752L167.299 57.176C167.666 57.5335 167.875 58.0244 167.875 58.538V99.8981C167.875 100.948 167.024 101.799 165.975 101.799Z" fill="#FFB700"/>
<path d="M174.288 106.842C174.321 109.888 171.873 112.386 168.832 112.418L163.313 112.476C160.264 112.509 157.77 110.064 157.737 107.018L157.656 99.3995C157.623 96.3556 160.01 88.3419 163.059 88.3092L168.578 88.2513C171.619 88.2186 174.175 96.1794 174.205 99.2258L174.288 106.842Z" fill="#F99A24"/>
<path d="M38.7548 101.567H31.6323V89.2003H38.7548V91.3479H34.2532V94.0644H38.4401V96.2145H34.2532V99.4044H38.7548V101.567Z" fill="#14B0BF"/>
<path d="M40.2957 97.9822V95.8673H44.8375V97.9822H40.2957Z" fill="#14B0BF"/>
<path d="M46.9095 101.567V89.2003H49.5329V99.4019H54.5481V101.567H46.9095Z" fill="#14B0BF"/>
<path d="M63.8179 101.567H56.6954V89.2003H63.8179V91.3479H59.3163V94.0644H63.5032V96.2145H59.3163V99.4044H63.8179V101.567Z" fill="#14B0BF"/>
<path d="M73.9691 101.567L73.0703 98.6242H68.5637L67.6649 101.567H64.8401L69.2032 89.1503H72.4082L76.7889 101.567H73.9691ZM72.4459 96.4263C71.6176 93.7576 71.1493 92.2495 71.0436 91.9021C70.9404 91.5521 70.8648 91.2752 70.8195 91.0712C70.6357 91.7938 70.102 93.5788 69.2208 96.4263H72.4459Z" fill="#14B0BF"/>
<path d="M80.9735 96.824V101.57H78.3501V89.2031H81.9554C83.6372 89.2031 84.8784 89.5077 85.684 90.1195C86.4897 90.7313 86.8925 91.6603 86.8925 92.9065C86.8925 93.6341 86.6911 94.2812 86.2933 94.8476C85.893 95.4166 85.3265 95.8597 84.5914 96.1795C86.4519 98.959 87.6654 100.757 88.2294 101.567H85.319L82.3658 96.8215L80.9735 96.824ZM80.9735 94.6916H81.8194C82.6477 94.6916 83.2595 94.5531 83.6548 94.2761C84.0501 94.0017 84.2464 93.5662 84.2464 92.9745C84.2464 92.3879 84.0476 91.97 83.6422 91.7232C83.2394 91.474 82.615 91.3506 81.7691 91.3506H80.9735V94.6916Z" fill="#14B0BF"/>
<path d="M100.757 101.567H97.4237L92.0435 92.2114H91.968C92.0762 93.863 92.1291 95.0438 92.1291 95.7462V101.567H89.7852V89.2003H93.0933L98.466 98.4628H98.5239C98.4383 96.8565 98.3955 95.7185 98.3955 95.0539V89.2003H100.757V101.567Z" fill="#14B0BF"/>
<path d="M103.871 101.567V89.2003H106.495V101.567H103.871Z" fill="#14B0BF"/>
<path d="M120.576 101.567H117.243L111.862 92.2114H111.787C111.895 93.863 111.948 95.0438 111.948 95.7462V101.567H109.604V89.2003H112.91L118.28 98.4628H118.34C118.255 96.8565 118.212 95.7185 118.212 95.0539V89.2003H120.573L120.576 101.567Z" fill="#14B0BF"/>
<path d="M128.383 94.6236H133.29V101.036C132.495 101.295 131.747 101.477 131.042 101.582C130.342 101.686 129.624 101.738 128.892 101.738C127.024 101.738 125.599 101.19 124.617 100.094C123.632 98.9967 123.139 97.4207 123.139 95.3688C123.139 93.3723 123.713 91.8164 124.853 90.6985C125.994 89.5832 127.58 89.0243 129.604 89.0243C130.873 89.0243 132.097 89.2786 133.275 89.7846L132.404 91.8818C131.5 91.4312 130.561 91.2046 129.587 91.2046C128.454 91.2046 127.545 91.5847 126.863 92.3476C126.18 93.1079 125.84 94.1326 125.84 95.4191C125.84 96.761 126.115 97.7857 126.664 98.4932C127.215 99.2007 128.013 99.5556 129.063 99.5556C129.609 99.5556 130.166 99.5002 130.727 99.387V96.8064H128.383V94.6236Z" fill="#14B0BF"/>
</svg>
