<svg width="137" height="150" viewBox="0 0 137 150" fill="none" xmlns="http://www.w3.org/2000/svg">
<path d="M35.8362 119.59C35.8362 119.59 42.2085 115.692 42.1608 116.227C41.7379 121.658 36.8883 138.86 34.3698 149.777H84.7052C86.0148 144.455 86.997 139.471 88.2299 134.906C90.288 127.34 91.5516 126.389 107.493 127.482C123.422 128.59 123.266 117.542 121.053 115.332C118.847 113.115 116.795 111.393 120.27 108.547C123.735 105.703 118.055 103.191 118.055 103.191C122.313 103.972 122.78 101.135 121.365 98.9215C119.955 96.7166 121.208 94.7506 121.208 94.7506C122.707 92.215 126.74 92.1467 128.317 90.2472C129.894 88.3425 121.689 75.4103 117.586 70.9956C113.472 66.5689 118.845 61.5284 118.845 61.5284C118.175 56.0001 118.292 54.885 116.718 50.6663C116.718 50.6663 119.162 50.697 120.618 51.9912C120.618 51.9912 119.948 32.9562 94.7676 23.9835C94.7437 23.975 94.7232 23.9699 94.6993 23.9613C79.3646 16.9803 60.9826 19.9286 52.1839 22.8871C28.5363 30.8384 10.5807 55.0111 21.3745 80.12C26.3929 91.7801 43.6818 105.498 35.8362 119.59Z" fill="url(#paint0_linear_113_1945)"/>
<path opacity="0.42" d="M104.323 53.4987C105.561 49.87 103.077 44.5771 98.3671 44.9045C98.1437 43.0663 97.4003 40.0635 96.1828 38.5339C94.5663 36.503 92.3478 36.8611 89.9827 36.7418C89.5325 34.4807 86.956 32.9017 84.8637 32.1974C83.9293 31.882 83.254 31.6143 82.2275 31.7012C81.1328 31.7933 80.4882 32.605 79.5265 32.755C77.4615 33.079 75.8927 31.1146 73.8448 30.4257C70.7755 29.3941 68.3319 30.3081 65.445 31.2596C63.7262 31.8257 65.1262 31.9434 63.4261 31.2477C62.3774 30.8197 61.5708 29.9244 60.3977 29.7096C58.4197 29.3464 56.4979 30.3251 54.8814 31.309C53.3484 32.2418 51.8001 35.1611 50.4684 35.688C49.8409 35.9352 48.5296 35.2634 47.8577 35.2327C46.7238 35.1798 45.9547 35.3913 44.9418 35.8329C43.0934 36.6378 40.9619 38.3259 40.0821 40.0857C39.7189 40.8138 39.9815 41.842 39.2158 42.3024C38.5474 42.7031 36.924 42.1677 36.1209 42.3416C31.0019 43.45 31.5152 49.367 31.8903 53.5123C25.7312 54.2131 26.3723 67.3772 32.3303 68.5862C24.6484 76.0361 37.8312 80.0433 37.8312 80.0433C34.8591 83.4998 40.2611 88.9001 47.544 85.5596C47.6872 87.802 50.2757 89.0484 52.4532 88.6204C55.3981 88.0424 55.3333 86.7908 57.7478 86.0234C59.2961 85.5306 61.3799 86.847 62.0995 88.455C62.8344 90.1005 59.291 94.2356 61.6783 94.2356C62.8753 94.2356 64.9863 92.9823 65.5354 92.7197C69.6893 90.7332 72.1209 86.3594 74.312 82.5278C75.9967 79.5829 78.251 76.9416 81.5591 75.8281C85.2968 74.5697 91.5174 75.4086 94.3616 72.52L94.1246 72.6394C95.5604 71.6453 96.9177 70.4534 98.5649 69.8736C100.855 69.0687 103.793 70.5574 105.834 68.5606C109.383 65.0888 109.395 55.5091 104.323 53.4987Z" fill="#FFF5AE"/>
<path d="M72.629 35.6521L45.0391 66.117L65.2251 61.4584L51.7899 83.1229L88.6356 54.7264L63.6563 56.4469L72.629 35.6521Z" fill="#FFDB40"/>
<path d="M124.639 40.6193L125.795 45.0375L137 42.0994L135.846 35.6521L124.639 40.6193Z" fill="#FFD427"/>
<path d="M111.797 26.1849L117.401 15.8515L111.797 13.2221L106.702 24.1183L111.797 26.1849Z" fill="#FFD427"/>
<path d="M82.4799 14.5504L77.8981 13.0924L78.2903 0H85.2304L82.4799 14.5504Z" fill="#FFD427"/>
<path d="M51.1845 16.039L46.3333 17.7646L40.5203 6.2188L47.59 3.47003L51.1845 16.039Z" fill="#FFD427"/>
<path d="M22.7814 33.0585L19.7444 37.8637L8.24976 33.0585L11.1946 25.2026L22.7814 33.0585Z" fill="#FFD427"/>
<path d="M13.355 64.9166L0 65.9209L1.17829 72.4023C1.17829 72.4023 14.5316 70.2419 14.5316 69.6536C14.5316 69.0653 13.355 64.9166 13.355 64.9166Z" fill="#FFD427"/>
<defs>
<linearGradient id="paint0_linear_113_1945" x1="56.999" y1="31.4161" x2="96.276" y2="162.994" gradientUnits="userSpaceOnUse">
<stop stop-color="#F65138"/>
<stop offset="0.0887" stop-color="#DB5D51"/>
<stop offset="0.2408" stop-color="#B36F77"/>
<stop offset="0.3902" stop-color="#937D94"/>
<stop offset="0.5343" stop-color="#7C87A9"/>
<stop offset="0.6708" stop-color="#6F8DB6"/>
<stop offset="0.7914" stop-color="#6A8FBA"/>
</linearGradient>
</defs>
</svg>
